<svg xmlns="http://www.w3.org/2000/svg" version="1.1" viewBox="108.21 156 402.79 268.87">
    <path d="M 492.109 345.309 C 485.439 356.967, 471.158 368.309, 451.554 377.518 C 436.375 384.648, 437.529 384.469, 434.225 380.201 C 427.558 371.589, 423 360.937, 423 353.966 C 423 349.405, 420.802 347.089, 418.381 349.099 C 417.098 350.164, 416.883 351.592, 417.347 355.971 C 418.194 363.959, 420.555 370.062, 426.063 378.500 C 428.732 382.588, 430.598 386.113, 430.208 386.333 C 427.938 387.611, 411.516 392.434, 399.208 395.437 C 330.146 412.285, 238.988 413.366, 179.678 398.040 C 149.623 390.273, 128.157 378.849, 117.435 364.915 C 112.685 358.742, 111.121 357.944, 108.936 360.577 C 107.845 361.892, 107.941 362.735, 109.520 365.666 C 112.392 371, 125.751 382.974, 134.184 387.775 C 193.827 421.729, 325.152 425.405, 423.215 395.866 L 436.929 391.735 442.452 396.782 C 457.969 410.964, 483.634 423.520, 499.571 424.726 C 507.406 425.319, 511 424.137, 511 420.965 C 511 418.790, 510.990 418.788, 502.500 418.974 C 488.979 419.270, 462.572 407.041, 447.118 393.327 L 442.745 389.446 455.381 383.255 C 462.330 379.849, 470.685 375.251, 473.945 373.037 C 491.856 360.874, 505.744 341.390, 497.355 340.194 C 495.674 339.955, 494.541 341.059, 492.109 345.309" stroke="none" fill="#e03737" fill-rule="evenodd"></path>
    <path d="M 236 274 L 236 392 251.500 392 L 267 392 267 274 L 267 156 251.500 156 L 236 156 236 274" stroke="none" fill="#040484" fill-rule="evenodd"></path>
    <path d="M 145 220.500 L 145 237 138.500 237 L 132 237 132 245 L 132 253 138.446 253 L 144.892 253 145.197 291.750 C 145.490 328.872, 145.594 330.723, 147.678 335.809 C 151.941 346.216, 157.739 351.415, 168.604 354.573 C 173.289 355.935, 176.828 356.157, 186.473 355.691 C 193.088 355.371, 200.188 354.614, 202.250 354.008 L 206 352.906 206 343.836 C 206 334.943, 205.956 334.777, 203.750 335.290 C 189.622 338.574, 187.024 338.935, 181.697 338.358 C 174.257 337.552, 170.149 334.796, 167.002 328.499 L 164.505 323.500 164.148 288.250 L 163.791 253 184.896 253 L 206 253 206 245 L 206 237 185 237 L 164 237 164 220.500 L 164 204 154.500 204 L 145 204 145 220.500 M 336.500 227.402 C 331.158 229.096, 324.734 232.445, 317.750 237.178 L 312 241.075 312 235.037 L 312 229 302.500 229 L 293 229 293 287 L 293 345 302.500 345 L 312 345 312 302.117 L 312 259.235 318.495 255.003 C 328.780 248.303, 336.149 245.732, 344.977 245.765 C 353.494 245.798, 357.277 246.960, 361.274 250.773 C 366.786 256.032, 367.219 259.617, 367.747 304.250 L 368.230 345 377.615 345 L 387 345 387 302.117 L 387 259.235 393.495 255.003 C 403.901 248.223, 411.218 245.664, 420 245.733 C 428.506 245.800, 432.288 246.971, 436.274 250.773 C 441.786 256.032, 442.219 259.617, 442.747 304.250 L 443.230 345 452.615 345 L 462 345 462 302.549 C 462 275.175, 461.604 258.216, 460.885 254.799 C 458.299 242.501, 451.786 233.629, 442.067 229.164 C 435.328 226.068, 421.870 225.052, 413.114 226.977 C 406.494 228.433, 394.515 234.456, 387.556 239.829 L 382.611 243.646 379.527 239.602 C 375.200 233.929, 368.799 229.315, 362.774 227.526 C 356.582 225.687, 342.125 225.619, 336.500 227.402" stroke="none" fill="#040404" fill-rule="evenodd"></path>
</svg>